# This file uses centimeters as units for non-parametric coordinates.

mtllib ButtonArrowUp.mtl

v -2.047483 -1.997455 1.995829
v 1.947427 -1.997455 1.995829
v -2.047483 1.997455 1.995829
v 1.947427 1.997455 1.995829
v -2.047483 1.997455 -1.999081
v 1.947427 1.997455 -1.999081
v -2.047483 -1.997455 -1.999081
v 1.947427 -1.997455 -1.999081
vt 0.999237 0.001773
vt 0.999237 0.001773
vt 0.005440 0.001773
vt 0.002463 0.998547
vt 0.005440 0.001773
vt 1.000725 1.000036
vt 0.005440 0.001773
vt 1.000725 1.000036
vt 0.002463 0.998547
vt 1.000725 1.000036
vt 0.999237 0.001773
vt 1.000725 1.000036
vt 0.005440 0.001773
vt 0.002463 0.998547
vt 0.999237 0.001773
vt 0.002463 0.998547
vt 0.999237 0.001773
vt 0.002463 0.998547
vt 1.000725 1.000036
vt 0.999237 0.001773
vt 0.002463 0.998547
vt 1.000725 1.000036
vt 0.005440 0.001773
vt 0.005440 0.001773
vn 0.000000 0.000000 1.000000
vn 0.000000 0.000000 1.000000
vn 0.000000 0.000000 1.000000
vn 0.000000 0.000000 1.000000
vn 0.000000 0.000000 1.000000
vn 0.000000 0.000000 1.000000
vn 0.000000 1.000000 0.000000
vn 0.000000 1.000000 0.000000
vn 0.000000 1.000000 0.000000
vn 0.000000 1.000000 0.000000
vn 0.000000 1.000000 0.000000
vn 0.000000 1.000000 0.000000
vn 0.000000 0.000000 -1.000000
vn 0.000000 0.000000 -1.000000
vn 0.000000 0.000000 -1.000000
vn 0.000000 0.000000 -1.000000
vn 0.000000 0.000000 -1.000000
vn 0.000000 0.000000 -1.000000
vn 0.000000 -1.000000 0.000000
vn 0.000000 -1.000000 0.000000
vn 0.000000 -1.000000 0.000000
vn 0.000000 -1.000000 0.000000
vn 0.000000 -1.000000 0.000000
vn 0.000000 -1.000000 0.000000
vn 1.000000 0.000000 0.000000
vn 1.000000 0.000000 0.000000
vn 1.000000 0.000000 0.000000
vn 1.000000 0.000000 0.000000
vn 1.000000 0.000000 0.000000
vn 1.000000 0.000000 0.000000
vn -1.000000 0.000000 0.000000
vn -1.000000 0.000000 0.000000
vn -1.000000 0.000000 0.000000
vn -1.000000 0.000000 0.000000
vn -1.000000 0.000000 0.000000
vn -1.000000 0.000000 0.000000
s off
f 1/24/1 2/2/2 3/21/3
f 3/21/4 2/2/5 4/19/6
f 3/3/7 4/20/8 5/18/9
f 5/18/10 4/20/11 6/6/12
f 5/5/13 6/17/14 7/16/15
f 7/16/16 6/17/17 8/8/18
f 7/7/19 8/15/20 1/9/21
f 1/9/22 8/15/23 2/10/24
f 2/23/25 8/11/26 4/4/27
f 4/4/28 8/11/29 6/12/30
f 7/13/31 1/1/32 5/14/33
f 5/14/34 1/1/35 3/22/36
